PathFileType	4	(X/Y/Z)	C:\Users\Basilio\Documents\Thesis Gigler\squatting_fais\c3dfiles\040\SJ_pre1\markers_experimental.trc
DataRate	CameraRate	NumFrames	NumMarkers	Units	OrigDataRate	OrigDataStartFrame	OrigNumFrames
200.000000	200.000000	4	62	mm	200.000000	587	1174
Frame#	Time	FHD			LBHD			RBHD			C7			T10			CLAV			LSHO			LUUPA			LMUPA			LDUPA			LLEP			LMEP			LRAD			LUL			LRFIN			RSHO			RUPA1			RMUPA			RDUPA			RLEP			RMEP			RRAD			RUL			RUFIN			LASI			RASI			USACR			LSACR			RSACR			LTHI1			LTHI2			LTHI3			LTHI4			LLFC			LMFC			LTIB1			LTIB2			LTIB3			LTIB4			LLMAL			LMMAL			LHEE			LMT1			LMT2			LMT5			RTHI			RTHI2			RTHI3			RTHI4			RLFC			RMFC			RTIB1			RTIB2			RTIB3			RTIB4			RLMAL			RMMAL			RHEE			RMT1			RMT2			RMT5			*61			
		X1	Y1	Z1	X2	Y2	Z2	X3	Y3	Z3	X4	Y4	Z4	X5	Y5	Z5	X6	Y6	Z6	X7	Y7	Z7	X8	Y8	Z8	X9	Y9	Z9	X10	Y10	Z10	X11	Y11	Z11	X12	Y12	Z12	X13	Y13	Z13	X14	Y14	Z14	X15	Y15	Z15	X16	Y16	Z16	X17	Y17	Z17	X18	Y18	Z18	X19	Y19	Z19	X20	Y20	Z20	X21	Y21	Z21	X22	Y22	Z22	X23	Y23	Z23	X24	Y24	Z24	X25	Y25	Z25	X26	Y26	Z26	X27	Y27	Z27	X28	Y28	Z28	X29	Y29	Z29	X30	Y30	Z30	X31	Y31	Z31	X32	Y32	Z32	X33	Y33	Z33	X34	Y34	Z34	X35	Y35	Z35	X36	Y36	Z36	X37	Y37	Z37	X38	Y38	Z38	X39	Y39	Z39	X40	Y40	Z40	X41	Y41	Z41	X42	Y42	Z42	X43	Y43	Z43	X44	Y44	Z44	X45	Y45	Z45	X46	Y46	Z46	X47	Y47	Z47	X48	Y48	Z48	X49	Y49	Z49	X50	Y50	Z50	X51	Y51	Z51	X52	Y52	Z52	X53	Y53	Z53	X54	Y54	Z54	X55	Y55	Z55	X56	Y56	Z56	X57	Y57	Z57	X58	Y58	Z58	X59	Y59	Z59	X60	Y60	Z60	X61	Y61	Z61	X62	Y62	Z62	

588	2.935	43.96362304687501	1117.1171875	-895.7960205078127	-74.49926757812501	1056.152099609375	-944.8692626953127	-136.0820770263672	1018.320678710938	-814.7966308593752	-141.759994506836	966.2796630859377	-861.4223632812502	-387.4099121093751	780.1433105468752	-871.0571899414065	-78.53707122802736	824.0067138671877	-857.3051757812502	-31.0263843536377	874.6678466796877	-1016.478393554688	-150.1996459960938	812.764099121094	-1185.7568359375	-177.2870330810547	773.7197265625002	-1177.247802734375	-201.9987945556641	792.658630371094	-1228.879760742188	-255.7902221679688	782.149841308594	-1270.130737304688	-295.3822631835938	843.2014160156252	-1248.171630859375	-478.6569824218751	687.4559936523439	-1097.826293945313	-461.1887207031251	627.0140991210939	-1135.81005859375	-441.486053466797	665.8659667968751	-1046.064575195313	-52.67803955078126	860.7285766601565	-696.9929809570314	-168.6854400634766	835.0561523437502	-524.6204223632814	-188.0912475585938	790.6145019531252	-521.9957885742189	-211.9115142822266	816.5901489257815	-472.9101867675782	-264.4905090332032	778.2832031250002	-435.8984375000001	-323.3373718261719	834.4980468750002	-465.9794006347657	-428.7702941894532	659.4055786132814	-638.4030151367189	-412.9996032714845	593.0897827148439	-602.1478881835939	-380.9821472167969	647.9338378906251	-691.4754638671876	nan	nan	nan	nan	nan	nan	-520.6803588867189	694.7772216796876	-867.4791259765627	-544.6777343750001	675.2636108398439	-898.0450439453127	-550.9075317382814	674.0369873046876	-842.974304199219	-359.0885620117188	461.8379516601564	-1091.714477539063	-276.5643615722657	478.0432128906251	-1109.027587890625	-261.3911437988282	521.1714477539064	-1100.919799804688	-232.7075653076172	437.862518310547	-1112.36376953125	-120.1508255004883	419.2202758789064	-1126.100463867188	-106.098373413086	375.2155761718751	-1002.81640625	-183.3135681152344	225.8788146972657	-1099.983764648438	-267.7500610351563	244.897201538086	-1128.734130859375	-238.1775970458985	212.466293334961	-1119.981689453125	-276.0582885742188	142.8320922851563	-1093.038696289063	-382.1323852539063	104.4448394775391	-1101.093994140625	-332.6986083984376	95.09103393554689	-1025.469360351563	-445.2276611328126	47.71429443359376	-1058.635009765625	-222.6856994628907	55.49105834960939	-1086.005737304688	-235.0789337158204	55.12252807617189	-1131.056518554688	-291.2224731445313	34.03800201416016	-1170.282348632813	-351.4020690917969	495.7760009765626	-634.8289794921876	-286.5324401855469	505.6135253906251	-622.5901489257814	-271.3313598632813	535.1608886718751	-631.3198852539064	-229.3712158203126	445.8364562988282	-609.0519409179689	-140.804183959961	408.9130859375001	-592.4312744140626	-114.5878448486328	387.6481933593751	-724.0087280273439	-184.6163787841797	242.5540771484376	-620.6648559570314	-294.1868896484376	232.444808959961	-614.7877807617189	-259.2998962402344	201.7606201171876	-618.7521362304689	-271.3789367675782	154.3514556884766	-650.0356445312501	-383.9630737304688	100.3533401489258	-643.8598632812501	-344.6549377441407	96.808464050293	-725.7002563476564	-446.1036376953126	49.42849349975587	-701.9443969726564	-227.7395477294922	53.44517517089845	-654.0616455078126	-240.6078643798829	57.52862548828126	-616.6082153320314	-292.9167480468751	35.4702377319336	-573.2203369140626	nan	nan	nan	
589	2.94	41.5278434753418	1123.91162109375	-895.9733886718752	-75.9735565185547	1061.794311523438	-945.013122558594	-137.0843200683594	1023.430786132813	-814.927185058594	-142.3346710205078	971.768737792969	-861.5064086914065	-386.6878051757814	784.099792480469	-871.2321777343752	-78.52434539794923	829.8120727539065	-857.2419433593752	-31.09471321105958	880.419372558594	-1016.484375	-149.4006805419922	818.1469726562502	-1186.306762695313	-176.0608825683594	778.6568603515627	-1177.981079101563	-201.4100341796876	797.7105712890627	-1229.48046875	-254.5765228271485	786.5516357421877	-1270.734375	-294.4780273437501	847.520690917969	-1249.165405273438	-476.7432861328126	691.1081542968751	-1098.151000976563	-459.0060424804689	630.8888549804689	-1136.376220703125	-440.0368041992189	669.3670043945314	-1046.197875976563	-52.66176223754884	866.8958740234377	-697.1082153320314	-167.7750549316407	841.0775146484377	-523.9653320312501	-187.5612182617188	796.189636230469	-521.9952392578126	-211.1555480957032	821.6860961914065	-473.1526794433595	-263.4867858886719	783.0531005859377	-436.4024047851564	-322.7867126464844	839.136901855469	-466.0538024902345	-427.1384887695314	663.4519042968751	-638.4066162109376	-411.0122985839845	597.0159912109376	-602.5528564453126	-379.2658996582032	651.2344360351564	-691.8071899414064	nan	nan	nan	nan	nan	nan	-519.1759643554689	699.2411499023439	-867.3576660156252	-544.6312866210939	679.8510742187501	-898.5775146484377	-548.8640136718751	678.4532470703126	-843.213562011719	-358.7021179199219	464.300750732422	-1091.484008789063	-275.6900939941407	479.6483154296876	-1108.494506835938	-260.1289978027344	522.4101562500001	-1100.500122070313	-232.0458984375001	439.0315246582032	-1111.261962890625	-119.6046218872071	419.2074279785157	-1125.362060546875	-105.8371658325196	375.7445983886719	-1002.032958984375	-182.9754943847657	224.8591918945313	-1099.56640625	-267.2145996093751	244.7348785400391	-1128.455932617188	-237.8102722167969	212.2138214111329	-1119.68603515625	-275.7691345214844	142.6721954345703	-1092.718139648438	-381.8103637695313	104.3065490722657	-1101.161254882813	-332.6733703613282	95.01316070556642	-1025.443237304688	-445.2250976562501	47.79285430908204	-1058.699584960938	-222.0840606689454	55.23002243041994	-1086.022094726563	-235.1271667480469	54.65168380737306	-1131.128051757813	-291.2699890136719	34.14638137817384	-1170.255859375	-350.4708557128907	498.0934448242189	-634.9840087890626	-285.4009094238282	507.1260681152345	-622.8533325195314	-270.1093444824219	536.5380859375001	-631.1826171875001	-228.8461608886719	446.9205627441407	-609.6582641601564	-140.575668334961	409.0115356445314	-592.9613037109376	-114.6079559326172	387.8534545898439	-724.3488769531251	-184.5001831054688	242.4483489990235	-621.0961303710939	-294.0541076660157	232.5482635498047	-614.8933715820314	-258.8945922851563	201.7085571289063	-618.9168701171876	-271.3489685058594	154.2831115722657	-650.0999755859376	-383.9348754882813	100.3742141723633	-643.8450317382814	-344.6918334960938	96.76033782958987	-725.7249145507814	-446.135223388672	49.45334625244142	-701.8819580078126	-227.7352752685547	53.34788894653322	-654.0707397460939	-240.5911254882813	57.55888748168947	-616.6455688476564	-292.8855895996094	35.48345184326173	-573.2355346679689	nan	nan	nan	
590	2.945	38.82149124145509	1131.483764648438	-895.8227539062502	-77.6515579223633	1067.911865234375	-945.1864013671877	-138.3860015869141	1028.857788085938	-815.2219848632815	-142.8186187744141	977.6514282226565	-861.769714355469	-385.9523010253907	788.3031005859377	-871.5445556640627	-78.23392486572267	836.0069580078127	-857.2439575195315	-31.08630180358887	886.3867797851565	-1016.492980957031	-148.6492309570313	823.5512695312502	-1186.768432617188	-175.2537536621094	783.9627685546877	-1178.480712890625	-200.4356994628907	802.5520629882815	-1230.10888671875	-253.5636596679688	791.1635742187502	-1271.4267578125	-293.8915100097657	851.8946533203127	-1249.760009765625	-475.1291503906251	695.0358886718751	-1098.386352539063	-457.2648010253907	634.6236572265626	-1136.600341796875	-438.109832763672	673.0028686523439	-1046.43408203125	-52.34710693359376	873.2795410156252	-697.3549194335939	-167.4537506103516	847.2987060546877	-523.7896118164064	-187.0750122070313	801.949157714844	-522.1859130859376	-210.3267822265626	827.2561035156252	-473.3641052246095	-262.8273925781251	787.8229980468752	-436.3184509277345	-322.4455261230469	843.904724121094	-466.1813964843751	-425.5745849609376	667.5211181640626	-638.7962646484376	-409.2568969726564	601.3861694335939	-602.3096313476564	-377.7474670410157	655.4701538085939	-692.3381958007814	nan	nan	nan	nan	nan	nan	-517.8826293945314	702.9859008789064	-867.4622192382815	-543.3818359375001	684.3222045898439	-898.6882934570315	-548.0490722656251	682.8967895507814	-843.545837402344	-357.5305480957032	466.4691162109376	-1091.053100585938	-274.7358398437501	481.2460937500001	-1107.776611328125	-258.6590881347657	523.9631347656251	-1100.175903320313	-231.4412078857422	440.2647399902345	-1110.553344726563	-118.8080444335938	419.1065673828126	-1124.080932617188	-105.9444351196289	376.2313842773438	-1001.17822265625	-182.6534576416016	224.9313049316407	-1099.021606445313	-266.7147216796876	244.4669952392579	-1128.24267578125	-237.1471405029297	211.8593444824219	-1119.261962890625	-275.3320617675782	142.3534545898438	-1092.239379882813	-381.8423767089844	104.4732894897461	-1101.257202148438	-332.6360778808594	94.99349975585939	-1025.363403320313	-445.1990661621095	47.77226638793946	-1058.791870117188	-222.0171966552735	55.16110229492189	-1086.002563476563	-235.0776367187501	54.61330795288087	-1131.069458007813	-291.1550292968751	34.12117767333985	-1170.262451171875	-349.2329406738282	500.4532775878907	-635.3057861328126	-284.1485290527344	509.0063781738282	-623.1719360351564	-268.5003051757813	538.5172119140626	-631.0335083007814	-228.2664031982422	447.9364624023439	-610.1837158203126	-140.1504364013672	409.3642883300782	-593.4844360351564	-114.539306640625	388.106170654297	-724.7794799804689	-184.1671295166016	242.1642608642579	-621.5524291992189	-293.6622619628907	232.4088439941407	-615.0691528320314	-258.7756958007813	201.7738952636719	-618.9752197265626	-271.3291015625001	154.1718139648438	-650.2438354492189	-383.8564147949219	100.4397354125977	-643.7627563476564	-344.7232055664063	96.73698425292972	-725.7769165039064	-446.2031250000001	49.49851226806642	-701.8438110351564	-227.5133209228516	52.8983726501465	-654.1720581054689	-240.6399383544922	57.67539978027345	-616.5851440429689	-292.9242248535157	35.4829216003418	-573.2292480468751	nan	nan	nan	
591	2.95	36.56156158447266	1139.159423828125	-896.0283813476565	-79.35535430908205	1074.191528320313	-945.1878051757815	-140.0256805419922	1034.759399414063	-815.544128417969	-143.5163879394532	983.3620605468752	-861.9792480468752	-385.1213989257814	792.9976196289065	-871.413269042969	-78.08367156982423	842.2852783203127	-857.1953735351565	-31.40340614318848	892.7701416015627	-1016.649597167969	-147.9263000488282	829.1060180664065	-1187.344848632813	-174.4562530517578	789.1763916015627	-1178.750244140625	-199.5442504882813	808.007507324219	-1230.629638671875	-252.5853118896485	795.9652099609377	-1272.07763671875	-293.2565917968751	856.3897094726565	-1250.579467773438	-473.5015258789064	698.6496582031251	-1098.752685546875	-455.090057373047	638.5278320312501	-1136.647705078125	-436.2281494140626	676.7940063476564	-1046.682739257813	-52.01510620117189	880.3128051757815	-697.8842773437501	-167.2286529541016	853.2408447265627	-524.1432495117189	-185.9521942138672	808.4023437500002	-522.3748779296876	-210.1638183593751	832.8929443359377	-473.4248046875001	-261.7370300292969	793.366394042969	-436.5374755859376	-322.0926818847657	848.4940185546877	-466.5345153808595	-423.8105773925782	671.8966064453126	-638.7932739257814	-407.4716186523439	605.7732543945314	-602.4019775390626	-376.3808898925782	659.7499389648439	-692.5588989257814	nan	nan	nan	nan	nan	nan	-516.1791992187501	707.7783813476564	-867.492370605469	-541.6273193359376	688.6688842773439	-898.6140136718752	-547.3211059570314	687.1788940429689	-843.9439697265627	-356.6269836425782	469.0479736328126	-1090.44384765625	-273.4473876953126	482.7295837402345	-1107.325073242188	-257.4089050292969	525.6393432617189	-1099.767700195313	-230.7226104736329	441.307586669922	-1109.837036132813	-118.2972106933594	419.1300048828126	-1123.138305664063	-105.5150451660157	376.6790161132813	-1000.189392089844	-182.0845336914063	224.7331085205079	-1098.337158203125	-266.1054687500001	244.1900634765626	-1127.938598632813	-236.7298583984376	211.6663513183594	-1118.834594726563	-275.0639648437501	141.8709259033203	-1092.32568359375	-381.6735534667969	104.5558624267578	-1101.610229492188	-332.7463378906251	94.90799713134767	-1025.328369140625	-445.1481018066407	47.80849075317384	-1058.806396484375	-222.5722961425782	55.31853103637697	-1085.872314453125	-235.0518188476563	54.5796241760254	-1131.016235351563	-291.1415710449219	34.24502563476563	-1170.22412109375	-348.4770812988282	502.417449951172	-635.8385009765626	-282.7676391601563	510.8950500488282	-623.4352416992189	-267.7766418457032	539.2720947265626	-632.6866455078126	-227.4788818359376	449.496307373047	-610.7211914062501	-139.3653869628907	409.0498352050782	-594.5974121093751	-114.8150329589844	388.2299194335939	-725.1959228515626	-183.9553680419922	242.1772003173829	-621.9500732421876	-293.2846984863282	232.2856140136719	-615.3265380859376	-258.6021423339844	201.7825012207032	-619.0084228515626	-271.2600097656251	154.0439605712891	-650.4053344726564	-383.8387451171876	100.4331130981446	-643.7675170898439	-344.7021179199219	96.66309356689456	-725.7784423828126	-446.1835937500001	49.5415382385254	-701.8166503906251	-227.5153961181641	52.89067459106447	-654.1751708984376	-240.1457061767579	57.89676666259767	-616.2843627929689	-292.9020996093751	35.48520660400391	-573.2537841796876	nan	nan	nan	
